<svg width="398" height="82" viewBox="0 0 398 82" fill="none" xmlns="http://www.w3.org/2000/svg">
<g filter="url(#filter0_d)">
<path d="M8 3H390V62C390 66.4183 386.418 70 382 70H16C11.5817 70 8 66.4183 8 62V3Z" fill="#FFFFFA"/>
</g>
<path d="M63.0078 36.3945C61.0781 35.8398 59.6719 35.1602 58.7891 34.3555C57.9141 33.543 57.4766 32.543 57.4766 31.3555C57.4766 30.0117 58.0117 28.9023 59.082 28.0273C60.1602 27.1445 61.5586 26.7031 63.2773 26.7031C64.4492 26.7031 65.4922 26.9297 66.4062 27.3828C67.3281 27.8359 68.0391 28.4609 68.5391 29.2578C69.0469 30.0547 69.3008 30.9258 69.3008 31.8711H67.0391C67.0391 30.8398 66.7109 30.0312 66.0547 29.4453C65.3984 28.8516 64.4727 28.5547 63.2773 28.5547C62.168 28.5547 61.3008 28.8008 60.6758 29.293C60.0586 29.7773 59.75 30.4531 59.75 31.3203C59.75 32.0156 60.043 32.6055 60.6289 33.0898C61.2227 33.5664 62.2266 34.0039 63.6406 34.4023C65.0625 34.8008 66.1719 35.2422 66.9688 35.7266C67.7734 36.2031 68.3672 36.7617 68.75 37.4023C69.1406 38.043 69.3359 38.7969 69.3359 39.6641C69.3359 41.0469 68.7969 42.1562 67.7188 42.9922C66.6406 43.8203 65.1992 44.2344 63.3945 44.2344C62.2227 44.2344 61.1289 44.0117 60.1133 43.5664C59.0977 43.1133 58.3125 42.4961 57.7578 41.7148C57.2109 40.9336 56.9375 40.0469 56.9375 39.0547H59.1992C59.1992 40.0859 59.5781 40.9023 60.3359 41.5039C61.1016 42.0977 62.1211 42.3945 63.3945 42.3945C64.582 42.3945 65.4922 42.1523 66.125 41.668C66.7578 41.1836 67.0742 40.5234 67.0742 39.6875C67.0742 38.8516 66.7812 38.207 66.1953 37.7539C65.6094 37.293 64.5469 36.8398 63.0078 36.3945ZM77.1523 44.2344C75.4336 44.2344 74.0352 43.6719 72.957 42.5469C71.8789 41.4141 71.3398 39.9023 71.3398 38.0117V37.6133C71.3398 36.3555 71.5781 35.2344 72.0547 34.25C72.5391 33.2578 73.2109 32.4844 74.0703 31.9297C74.9375 31.3672 75.875 31.0859 76.8828 31.0859C78.5312 31.0859 79.8125 31.6289 80.7266 32.7148C81.6406 33.8008 82.0977 35.3555 82.0977 37.3789V38.2812H73.5078C73.5391 39.5312 73.9023 40.543 74.5977 41.3164C75.3008 42.082 76.1914 42.4648 77.2695 42.4648C78.0352 42.4648 78.6836 42.3086 79.2148 41.9961C79.7461 41.6836 80.2109 41.2695 80.6094 40.7539L81.9336 41.7852C80.8711 43.418 79.2773 44.2344 77.1523 44.2344ZM76.8828 32.8672C76.0078 32.8672 75.2734 33.1875 74.6797 33.8281C74.0859 34.4609 73.7188 35.3516 73.5781 36.5H79.9297V36.3359C79.8672 35.2344 79.5703 34.3828 79.0391 33.7812C78.5078 33.1719 77.7891 32.8672 76.8828 32.8672ZM92.4453 44C92.3203 43.75 92.2188 43.3047 92.1406 42.6641C91.1328 43.7109 89.9297 44.2344 88.5312 44.2344C87.2812 44.2344 86.2539 43.8828 85.4492 43.1797C84.6523 42.4688 84.2539 41.5703 84.2539 40.4844C84.2539 39.1641 84.7539 38.1406 85.7539 37.4141C86.7617 36.6797 88.1758 36.3125 89.9961 36.3125H92.1055V35.3164C92.1055 34.5586 91.8789 33.957 91.4258 33.5117C90.9727 33.0586 90.3047 32.832 89.4219 32.832C88.6484 32.832 88 33.0273 87.4766 33.418C86.9531 33.8086 86.6914 34.2812 86.6914 34.8359H84.5117C84.5117 34.2031 84.7344 33.5938 85.1797 33.0078C85.6328 32.4141 86.2422 31.9453 87.0078 31.6016C87.7812 31.2578 88.6289 31.0859 89.5508 31.0859C91.0117 31.0859 92.1562 31.4531 92.9844 32.1875C93.8125 32.9141 94.2422 33.918 94.2734 35.1992V41.0352C94.2734 42.1992 94.4219 43.125 94.7188 43.8125V44H92.4453ZM88.8477 42.3477C89.5273 42.3477 90.1719 42.1719 90.7812 41.8203C91.3906 41.4688 91.832 41.0117 92.1055 40.4492V37.8477H90.4062C87.75 37.8477 86.4219 38.625 86.4219 40.1797C86.4219 40.8594 86.6484 41.3906 87.1016 41.7734C87.5547 42.1562 88.1367 42.3477 88.8477 42.3477ZM103.801 33.2656C103.473 33.2109 103.117 33.1836 102.734 33.1836C101.312 33.1836 100.348 33.7891 99.8398 35V44H97.6719V31.3203H99.7812L99.8164 32.7852C100.527 31.6523 101.535 31.0859 102.84 31.0859C103.262 31.0859 103.582 31.1406 103.801 31.25V33.2656ZM110.656 42.4648C111.43 42.4648 112.105 42.2305 112.684 41.7617C113.262 41.293 113.582 40.707 113.645 40.0039H115.695C115.656 40.7305 115.406 41.4219 114.945 42.0781C114.484 42.7344 113.867 43.2578 113.094 43.6484C112.328 44.0391 111.516 44.2344 110.656 44.2344C108.93 44.2344 107.555 43.6602 106.531 42.5117C105.516 41.3555 105.008 39.7773 105.008 37.7773V37.4141C105.008 36.1797 105.234 35.082 105.688 34.1211C106.141 33.1602 106.789 32.4141 107.633 31.8828C108.484 31.3516 109.488 31.0859 110.645 31.0859C112.066 31.0859 113.246 31.5117 114.184 32.3633C115.129 33.2148 115.633 34.3203 115.695 35.6797H113.645C113.582 34.8594 113.27 34.1875 112.707 33.6641C112.152 33.1328 111.465 32.8672 110.645 32.8672C109.543 32.8672 108.688 33.2656 108.078 34.0625C107.477 34.8516 107.176 35.9961 107.176 37.4961V37.9062C107.176 39.3672 107.477 40.4922 108.078 41.2812C108.68 42.0703 109.539 42.4648 110.656 42.4648ZM120.301 32.8555C121.262 31.6758 122.512 31.0859 124.051 31.0859C126.73 31.0859 128.082 32.5977 128.105 35.6211V44H125.938V35.6094C125.93 34.6953 125.719 34.0195 125.305 33.582C124.898 33.1445 124.262 32.9258 123.395 32.9258C122.691 32.9258 122.074 33.1133 121.543 33.4883C121.012 33.8633 120.598 34.3555 120.301 34.9648V44H118.133V26H120.301V32.8555ZM139.473 32.8555C140.434 31.6758 141.684 31.0859 143.223 31.0859C145.902 31.0859 147.254 32.5977 147.277 35.6211V44H145.109V35.6094C145.102 34.6953 144.891 34.0195 144.477 33.582C144.07 33.1445 143.434 32.9258 142.566 32.9258C141.863 32.9258 141.246 33.1133 140.715 33.4883C140.184 33.8633 139.77 34.3555 139.473 34.9648V44H137.305V26H139.473V32.8555ZM155.785 44.2344C154.066 44.2344 152.668 43.6719 151.59 42.5469C150.512 41.4141 149.973 39.9023 149.973 38.0117V37.6133C149.973 36.3555 150.211 35.2344 150.688 34.25C151.172 33.2578 151.844 32.4844 152.703 31.9297C153.57 31.3672 154.508 31.0859 155.516 31.0859C157.164 31.0859 158.445 31.6289 159.359 32.7148C160.273 33.8008 160.73 35.3555 160.73 37.3789V38.2812H152.141C152.172 39.5312 152.535 40.543 153.23 41.3164C153.934 42.082 154.824 42.4648 155.902 42.4648C156.668 42.4648 157.316 42.3086 157.848 41.9961C158.379 41.6836 158.844 41.2695 159.242 40.7539L160.566 41.7852C159.504 43.418 157.91 44.2344 155.785 44.2344ZM155.516 32.8672C154.641 32.8672 153.906 33.1875 153.312 33.8281C152.719 34.4609 152.352 35.3516 152.211 36.5H158.562V36.3359C158.5 35.2344 158.203 34.3828 157.672 33.7812C157.141 33.1719 156.422 32.8672 155.516 32.8672ZM169.379 33.2656C169.051 33.2109 168.695 33.1836 168.312 33.1836C166.891 33.1836 165.926 33.7891 165.418 35V44H163.25V31.3203H165.359L165.395 32.7852C166.105 31.6523 167.113 31.0859 168.418 31.0859C168.84 31.0859 169.16 31.1406 169.379 31.25V33.2656ZM176.41 44.2344C174.691 44.2344 173.293 43.6719 172.215 42.5469C171.137 41.4141 170.598 39.9023 170.598 38.0117V37.6133C170.598 36.3555 170.836 35.2344 171.312 34.25C171.797 33.2578 172.469 32.4844 173.328 31.9297C174.195 31.3672 175.133 31.0859 176.141 31.0859C177.789 31.0859 179.07 31.6289 179.984 32.7148C180.898 33.8008 181.355 35.3555 181.355 37.3789V38.2812H172.766C172.797 39.5312 173.16 40.543 173.855 41.3164C174.559 42.082 175.449 42.4648 176.527 42.4648C177.293 42.4648 177.941 42.3086 178.473 41.9961C179.004 41.6836 179.469 41.2695 179.867 40.7539L181.191 41.7852C180.129 43.418 178.535 44.2344 176.41 44.2344ZM176.141 32.8672C175.266 32.8672 174.531 33.1875 173.938 33.8281C173.344 34.4609 172.977 35.3516 172.836 36.5H179.188V36.3359C179.125 35.2344 178.828 34.3828 178.297 33.7812C177.766 33.1719 177.047 32.8672 176.141 32.8672ZM183.922 42.8633C183.922 42.4883 184.031 42.1758 184.25 41.9258C184.477 41.6758 184.812 41.5508 185.258 41.5508C185.703 41.5508 186.039 41.6758 186.266 41.9258C186.5 42.1758 186.617 42.4883 186.617 42.8633C186.617 43.2227 186.5 43.5234 186.266 43.7656C186.039 44.0078 185.703 44.1289 185.258 44.1289C184.812 44.1289 184.477 44.0078 184.25 43.7656C184.031 43.5234 183.922 43.2227 183.922 42.8633ZM190.25 42.8633C190.25 42.4883 190.359 42.1758 190.578 41.9258C190.805 41.6758 191.141 41.5508 191.586 41.5508C192.031 41.5508 192.367 41.6758 192.594 41.9258C192.828 42.1758 192.945 42.4883 192.945 42.8633C192.945 43.2227 192.828 43.5234 192.594 43.7656C192.367 44.0078 192.031 44.1289 191.586 44.1289C191.141 44.1289 190.805 44.0078 190.578 43.7656C190.359 43.5234 190.25 43.2227 190.25 42.8633ZM196.578 42.8633C196.578 42.4883 196.688 42.1758 196.906 41.9258C197.133 41.6758 197.469 41.5508 197.914 41.5508C198.359 41.5508 198.695 41.6758 198.922 41.9258C199.156 42.1758 199.273 42.4883 199.273 42.8633C199.273 43.2227 199.156 43.5234 198.922 43.7656C198.695 44.0078 198.359 44.1289 197.914 44.1289C197.469 44.1289 197.133 44.0078 196.906 43.7656C196.688 43.5234 196.578 43.2227 196.578 42.8633Z" fill="black" fill-opacity="0.5"/>
<rect x="53" y="17" width="1" height="33" fill="#021718"/>
<defs>
<filter id="filter0_d" x="0" y="-1" width="398" height="83" filterUnits="userSpaceOnUse" color-interpolation-filters="sRGB">
<feFlood flood-opacity="0" result="BackgroundImageFix"/>
<feColorMatrix in="SourceAlpha" type="matrix" values="0 0 0 0 0 0 0 0 0 0 0 0 0 0 0 0 0 0 127 0"/>
<feOffset dy="4"/>
<feGaussianBlur stdDeviation="4"/>
<feColorMatrix type="matrix" values="0 0 0 0 0 0 0 0 0 0 0 0 0 0 0 0 0 0 0.15 0"/>
<feBlend mode="normal" in2="BackgroundImageFix" result="effect1_dropShadow"/>
<feBlend mode="normal" in="SourceGraphic" in2="effect1_dropShadow" result="shape"/>
</filter>
</defs>
</svg>
